<svg width="1756" height="1134" viewBox="0 0 1756 1134" fill="none" xmlns="http://www.w3.org/2000/svg">
<path d="M1690.76 0.555939C1739.26 36.8347 1762.17 100.284 1754.38 159.599C1746.3 221.044 1703.64 269.879 1644.95 288.646C1588.28 306.729 1520.83 296.612 1478.2 253.009C1438.33 212.219 1420.61 139.858 1468.29 97.48C1508.55 61.7002 1579.06 62.2957 1615.79 102.791C1652.53 143.286 1649.65 208.213 1619.64 251.662C1581.75 306.473 1508.78 312.865 1448.21 305.295C1374.78 296.252 1298.71 265.025 1224.76 287.743C1166.45 305.655 1119.83 353.813 1098.81 410.58C1088.1 438.945 1084.63 469.53 1088.7 499.565C1093.44 532.292 1111.36 566.666 1140.69 583.68C1173.32 602.611 1209.87 587.632 1227.42 555.852C1246.68 520.894 1239.27 479.228 1231.03 442.224C1215.27 371.564 1188.28 296.037 1129.61 249.607C1077.62 208.561 999.858 192.45 943.284 234.005C879.151 281.12 869.621 368.043 881.352 440.91C887.725 480.439 899.135 519.068 910.188 557.489C921.421 596.553 932.932 635.572 942.326 675.173C960.048 750.223 969.806 828.15 954.415 904.528C939.986 976.178 903.586 1043.66 841.474 1084.53C783.691 1122.67 712.624 1135.71 644.341 1133.65C559.001 1131.17 475.852 1107.46 393.469 1087.26L129.216 1022.46L2.50769 991.374C-0.21955 990.707 0.492611 986.381 3.21022 987.023L264.295 1051.04C349.229 1071.88 433.932 1094.68 519.515 1112.69C595.708 1128.71 675.377 1137.7 751.867 1118.32C785.742 1109.74 818.456 1095.81 846.951 1075.35C877.779 1052.87 902.912 1023.47 920.328 989.506C997.136 842.263 938.508 675.62 897.141 527.694C877.454 457.214 859.201 380.412 884.837 308.857C895.893 277.914 914.858 248.958 941.77 229.607C966.337 212.276 995.984 203.66 1025.99 205.133C1091.04 207.686 1147.08 248.154 1181.55 301.481C1200.79 331.334 1214.23 364.584 1224.3 398.485C1234.57 433.124 1244.72 470.657 1243.94 507.017C1243.27 537.978 1231.22 570.988 1203.62 587.76C1178.95 602.732 1149.73 597.663 1127.92 580.153C1080.4 542.019 1074.32 473.355 1091.45 418.622C1108.46 364.348 1148.36 316.835 1199.99 292.593C1265.73 261.784 1337.88 280.21 1405.41 293.617C1469.37 306.334 1550.79 315.653 1602.19 265.57C1643.25 225.567 1652.6 151.912 1613.89 107.263C1574.81 62.1181 1491.47 66.2582 1457.74 116.037C1417.3 175.684 1466.78 253.912 1524.07 279.358C1581.35 304.804 1653.9 293.609 1701.22 252.357C1750.43 209.392 1762.65 137.459 1741.26 77.3998C1731.12 48.2057 1712.57 22.6719 1687.95 4.00771C1685.66 2.29115 1688.53 -1.04869 1690.76 0.555939Z" fill="#FF4C0D"/>
</svg>
